<svg xmlns="http://www.w3.org/2000/svg" width="265.828" height="226.657" viewBox="0 0 265.828 226.657">
  <g transform="translate(-97.5 -487.672)">
 <g transform="translate(0 19)">
<line x2="10" transform="translate(144.5 503.5)" fill="none" stroke-linecap="round" stroke-width="4"/>
<g>
  <line x2="9" y2="9" transform="translate(145.5 499.5)" fill="none" stroke-linecap="round" stroke-width="4"/>
  <line x1="7" y2="9" transform="translate(145.5 499.5)" fill="none" stroke-linecap="round" stroke-width="4"/>
</g>
 </g>
 <g transform="translate(70 51.5)">
<line id="선_38-2\" x2="10" transform="translate(144.5 503.5)" fill="none" stroke-linecap="round" stroke-width="4"/>
<g id="그룹_313-2"  >
  <line id="선_39-2\" x2="9" y2="9" transform="translate(145.5 499.5)" fill="none" stroke-linecap="round" stroke-width="4"/>
  <line id="선_40-2\" x1="7" y2="9" transform="translate(145.5 499.5)" fill="none" stroke-linecap="round" stroke-width="4"/>
</g>
 </g>
 <g transform="translate(0 87)">
<line id="선_38-3\" x2="10" transform="translate(144.5 503.5)" fill="none" stroke-linecap="round" stroke-width="4"/>
<g id="그룹_313-3"  >
  <line id="선_39-3\" x2="9" y2="9" transform="translate(145.5 499.5)" fill="none" stroke-linecap="round" stroke-width="4"/>
  <line id="선_40-3\" x1="7" y2="9" transform="translate(145.5 499.5)" fill="none" stroke-linecap="round" stroke-width="4"/>
</g>
 </g>
 <g transform="translate(129 73)">
<line id="선_38-4\" x2="10" transform="translate(144.5 503.5)" fill="none" stroke-linecap="round" stroke-width="4"/>
<g id="그룹_313-4"  >
  <line id="선_39-4\" x2="9" y2="9" transform="translate(145.5 499.5)" fill="none" stroke-linecap="round" stroke-width="4"/>
  <line id="선_40-4\" x1="7" y2="9" transform="translate(145.5 499.5)" fill="none" stroke-linecap="round" stroke-width="4"/>
</g>
 </g>
 <g transform="translate(60 170.5)">
<line id="선_38-5\" x2="10" transform="translate(144.5 503.5)" fill="none" stroke-linecap="round" stroke-width="4"/>
<g id="그룹_313-5"  >
  <line id="선_39-5\" x2="9" y2="9" transform="translate(145.5 499.5)" fill="none" stroke-linecap="round" stroke-width="4"/>
  <line id="선_40-5\" x1="7" y2="9" transform="translate(145.5 499.5)" fill="none" stroke-linecap="round" stroke-width="4"/>
</g>
 </g>
 <g transform="translate(184 32.5)">
<line id="선_38-6\" x2="10" transform="translate(144.5 503.5)" fill="none" stroke-linecap="round" stroke-width="4"/>
<g id="그룹_313-6"  >
  <line id="선_39-6\" x2="9" y2="9" transform="translate(145.5 499.5)" fill="none" stroke-linecap="round" stroke-width="4"/>
  <line id="선_40-6\" x1="7" y2="9" transform="translate(145.5 499.5)" fill="none" stroke-linecap="round" stroke-width="4"/>
</g>
 </g>
 <g transform="translate(206 106)">
<line id="선_38-7\" x2="10" transform="translate(144.5 503.5)" fill="none" stroke-linecap="round" stroke-width="4"/>
<g id="그룹_313-7"  >
  <line id="선_39-7\" x2="9" y2="9" transform="translate(145.5 499.5)" fill="none" stroke-linecap="round" stroke-width="4"/>
  <line id="선_40-7\" x1="7" y2="9" transform="translate(145.5 499.5)" fill="none" stroke-linecap="round" stroke-width="4"/>
</g>
 </g>
 <g transform="translate(134 203)">
<line id="선_38-8\" x2="10" transform="translate(144.5 503.5)" fill="none" stroke-linecap="round" stroke-width="4"/>
<g id="그룹_313-8"  >
  <line id="선_39-8\" x2="9" y2="9" transform="translate(145.5 499.5)" fill="none" stroke-linecap="round" stroke-width="4"/>
  <line id="선_40-8\" x1="7" y2="9" transform="translate(145.5 499.5)" fill="none" stroke-linecap="round" stroke-width="4"/>
</g>
 </g>
 <g transform="translate(153 150)">
<line id="선_38-9\" x2="10" transform="translate(144.5 503.5)" fill="none" stroke-linecap="round" stroke-width="4"/>
<g id="그룹_313-9"  >
  <line id="선_39-9\" x2="9" y2="9" transform="translate(145.5 499.5)" fill="none" stroke-linecap="round" stroke-width="4"/>
  <line id="선_40-9\" x1="7" y2="9" transform="translate(145.5 499.5)" fill="none" stroke-linecap="round" stroke-width="4"/>
</g>
 </g>
 <g transform="translate(-45 141)">
<line id="선_38-10\" x2="10" transform="translate(144.5 503.5)" fill="none" stroke-linecap="round" stroke-width="4"/>
<g id="그룹_313-10"  >
  <line id="선_39-10\" x2="9" y2="9" transform="translate(145.5 499.5)" fill="none" stroke-linecap="round" stroke-width="4"/>
  <line id="선_40-10\" x1="7" y2="9" transform="translate(145.5 499.5)" fill="none" stroke-linecap="round" stroke-width="4"/>
</g>
 </g>
 <g transform="translate(85 -9)">
<line id="선_38-11\" x2="10" transform="translate(144.5 503.5)" fill="none" stroke-linecap="round" stroke-width="4"/>
<g id="그룹_313-11"  >
  <line id="선_39-11\" x2="9" y2="9" transform="translate(145.5 499.5)" fill="none" stroke-linecap="round" stroke-width="4"/>
  <line id="선_40-11\" x1="7" y2="9" transform="translate(145.5 499.5)" fill="none" stroke-linecap="round" stroke-width="4"/>
</g>
 </g>
  </g>
</svg>
