<svg xmlns="http://www.w3.org/2000/svg" width="206.609"  viewBox="0 0 271.773 213.387">
  <g transform="translate(-827.171 -1137.824)">
 <path d="M-5236.49,13806.192s-36.092,6.674-39.973-43.118,23.859-70.719,53.363-79.029,114.528-20.812,145.594,1.912,41.544,43.419,42.062,47.483,11.813,56.784-42.062,77.612-127.905,1.843-138.861,0" transform="translate(6106 -12471.45)"  stroke-linecap="round" stroke-linejoin="round" stroke-width="4"/>
 <path d="M-5215.159,13734.3c-.111,8.045,0,15.211,0,15.211" transform="translate(6106 -12471.45)"  stroke-linecap="round" stroke-width="4"/>
 <path d="M-5140.96,13687.118s-16.535-9.511-9.4-34.668,25.84-40.64,33.413-37.8,9.982,23.151,6.331,37.8-15.419,26.162-15.045,29.158" transform="translate(8180.371 -11500.517) rotate(9)"  stroke-linecap="round" stroke-linejoin="round" stroke-width="4"/>
 <path d="M-5031.026,13744.025l15.4,4.807s1.328-.342,5.279,6.8-20.68,7.437-20.68,7.437" transform="matrix(0.998, -0.07, 0.07, 0.998, 5134.372, -12788.157)"  stroke-linecap="round" stroke-width="4"/>
 <path d="M-5184.288,13674.578l26.859-1.716,10.15,71.839v74.657h-27.357l.252-73.835Z" transform="translate(6106 -12471.45)" fill="#707070"/>
 <path d="M-5184.288,13674.578l27.446,2.057,11.593,74.73-3.249,62.27-25.5,3.273,2.334-64.931Z" transform="translate(6156 -12470.809)" fill="#707070"/>
 <path d="M-5184.288,13674.578l24.473,16.285,8.8,32.675-4.388,57-19.846,13.3,1.868-70.682Z" transform="translate(6208 -12458.91)" fill="#707070"/>
 <path d="M-5256.375,13752.128s.386,5.519,9.87,5.459,13.307-5.459,13.307-5.459" transform="translate(6106 -12471.45)"  stroke-linecap="round" stroke-linejoin="round" stroke-width="4"/>
 <path d="M-5266.394,13734.3l-2.393,12.117" transform="translate(6106 -12471.45)"  stroke-linecap="round" stroke-width="4"/>
 <path d="M-5140.96,13687.118s-16.535-9.511-9.4-34.668,25.84-40.64,33.413-37.8,9.982,23.151,6.331,37.8-15.419,26.162-15.045,29.158" transform="matrix(0.485, -0.875, 0.875, 0.485, -8548.322, -9923.561)"  stroke-linecap="round" stroke-linejoin="round" stroke-width="4"/>
 <path d="M-5215.159,13734.3c-.111,8.045,0,15.211,0,15.211" transform="translate(6106 -12471.45)"  stroke-linecap="round" stroke-width="4"/>
 <path d="M-5184.288,13674.578l26.859-1.716,10.15,71.839v74.657h-27.357l.252-73.835Z" transform="translate(6106 -12471.45)" fill="#707070"/>
 <path d="M-5184.9,13672.482l28.078,2.58,11.568,76.3-4.293,64.653-24.5,3.156,2.378-67.2Z" transform="translate(6156 -12470.809)" fill="#707070"/>
 <path d="M-5183.4,13671.34l23.587,19.523,8.8,32.675-5.206,60.345-19.262,12.053,2.1-72.776Z" transform="translate(6208 -12458.91)" fill="#707070"/>
 <path d="M-5256.375,13752.128s.386,5.519,9.87,5.459,13.307-5.459,13.307-5.459" transform="translate(6106 -12471.45)"  stroke-linecap="round" stroke-linejoin="round" stroke-width="4"/>
  </g>
</svg>
