<svg xmlns="http://www.w3.org/2000/svg" width="226.77" height="267.039" viewBox="0 0 226.77 267.039">
  <g transform="translate(-599.381 -1441.071)">
 <g transform="translate(444.431 10.515)">
<g>
  <path d="M-5723.525,13951.452s-42.417,3.083-47.215-12.141-25.266-23.831-6.3-58.509,59.429-28.062,77.851-28.875,40.629,23.722,49.611,37.948-3.3,39.825-8.273,43.726-19.471,20.312-36.1,20.665" transform="translate(5964 -12386)"  stroke-linecap="round" stroke-linejoin="round" stroke-width="4"/>
  <path d="M-5741.629,13954.267s-37.556,33.384-11.228,70.664,65.652,18.605,71.735,3.143,10.764-49.453,6.676-59.967-10.479-8.2-11.891-13.84" transform="translate(5964 -12386)"  stroke-linecap="round" stroke-linejoin="round" stroke-width="4"/>
  <path d="M-5776.662,13965.7s14.267-6.887,16.864,6.646-6.169,12.644-12.312,11.651-8.707-14.406,5.414-14.984" transform="translate(5964 -12386)"  stroke-linecap="round" stroke-linejoin="round" stroke-width="4"/>
  <path d="M-5666.063,13972.513s9.129-3.228,11.8,2.13,4.218,13.733-5.508,15.465-10.5-.275-11.1-4.673.15-9.287,4.812-10.792" transform="translate(5964 -12386)"  stroke-linecap="round" stroke-linejoin="round" stroke-width="4"/>
  <path d="M-5750.657,13903.084v7.685" transform="translate(5964 -12386)"  stroke-linecap="round" stroke-width="4"/>
  <path d="M-5690.65,13903.084l1.882,8.074" transform="translate(5964 -12386)"  stroke-linecap="round" stroke-width="4"/>
  <path d="M-5727.449,13924.239s.766,5.758,6.664,6.21,16.086-3.394,16.836-6.21" transform="translate(5964 -12386)"  stroke-linecap="round" stroke-linejoin="round" stroke-width="4"/>
  <path d="M-5750.657,14048.429c5.765-3.169,11.7-5.451,17.8-1.885s-6.691,12.826-12.721,13.862S-5756.422,14051.6-5750.657,14048.429Z" transform="translate(5964 -12386)"  stroke-linecap="round" stroke-linejoin="round" stroke-width="4"/>
  <path d="M-5688.768,14039.917s10.626-7.283,17.265,0-3.4,18.547-9.6,17.533-8.991-10.119-4.742-14.591" transform="translate(5964 -12386)"  stroke-linecap="round" stroke-linejoin="round" stroke-width="4"/>
  <path d="M-5727.449,13853.164l-1.312,5.893,1.312,12.159" transform="translate(5964 -12386)"  stroke-linecap="round" stroke-linejoin="round" stroke-width="4"/>
  <path d="M-5717.563,13851.9l1.067,11.636-1.067,6.581" transform="translate(5964 -12386)"  stroke-linecap="round" stroke-linejoin="round" stroke-width="4"/>
  <path d="M-5706.489,13853.164c2.995,9.271,1.921,7.944,1.734,12.6s0,7.49,0,7.49" transform="translate(5964 -12386)"  stroke-linecap="round" stroke-linejoin="round" stroke-width="4"/>
  <path d="M-5773.628,13873.251s-33.193-9.232-28.5-33.964,36.447-24.029,42.647-14.813,5.446,28.233,0,30.842" transform="translate(5964 -12386)"  stroke-linecap="round" stroke-linejoin="round" stroke-width="4"/>
  <path d="M-5685.49,13862.189s.782-16.356,20.543-19.535,22.015,14.969,22.015,17.606-5.073,15.976-16.5,16.7" transform="translate(5964 -12386)"  stroke-linecap="round" stroke-linejoin="round" stroke-width="4"/>
  <path d="M-5671.054,13975.713s5.9-38.916,41.566-38.132,45.64,34.138,45.192,48.271-14.54,56.97-43.56,52.387-44.047-26.717-31.613-45.958,28.3-34.023,44.024-21.582-4.061,30.671-14.043,28.693" transform="translate(5964 -12386)"  stroke-linecap="round" stroke-linejoin="round" stroke-width="4"/>
</g>
 </g>
 <g transform="translate(447.431 10.515)">
<g transform="matrix(0.914, -0.407, 0.407, 0.914, -660.378, 212.987)">
  <path d="M-5786.2,14037.307s-10.572-9.217-16.353-4.332,3.8,10.994,3.8,10.994,13.17,8.186,16.779,2.591-9.851-6.446-9.851-6.446" transform="translate(5964 -12386)"  stroke-linecap="round" stroke-linejoin="round" stroke-width="4"/>
  <path d="M-5799.852,14044.271s-9.165,9.938-3.282,17.356,12.652,1.824,12.652,1.824,4.578-8.687,2.491-14.675" transform="translate(5964 -12386)"  stroke-linecap="round" stroke-linejoin="round" stroke-width="4"/>
  <path d="M-5790.091,14039.66c4.788-13.213,8.842-13.311,8.842-13.311" transform="translate(5964 -12386)"  stroke-linecap="round" stroke-width="4"/>
</g>
<g transform="translate(325.527 -32.472) rotate(11)">
  <path d="M-5622.033,14049.635s-21.12.852-24.371,2.978.029,12.061,11.849,10.041,16.172-3.4,16.384-7.9-8.055,0-8.055,0" transform="translate(5964 -12386)"  stroke-linecap="round" stroke-linejoin="round" stroke-width="4"/>
  <path d="M-5632.878,14041.525s-5.342,6.848,0,11.782" transform="translate(5964 -12386)"  stroke-linecap="round" stroke-width="4"/>
  <path d="M-5639.55,14060.482s-1.9,24.571,14.578,16.686,0-19.776,0-19.776" transform="translate(5964 -12386)"  stroke-linecap="round" stroke-linejoin="round" stroke-width="4"/>
</g>
 </g>
  </g>
</svg>
