<svg xmlns="http://www.w3.org/2000/svg" width="227.076" height="270.803" viewBox="0 0 227.076 270.803">
  <g transform="translate(-840.943 -1441.083)">
 <g transform="translate(686.298 8.29)">
<g>
  <path d="M-5723.525,13951.452s-42.417,3.083-47.215-12.141-25.266-23.831-6.3-58.509,59.429-28.062,77.851-28.875,40.629,23.722,49.611,37.948-3.3,39.825-8.273,43.726-19.471,20.312-36.1,20.665" transform="translate(5964 -12386)"  stroke-linecap="round" stroke-linejoin="round" stroke-width="4"/>
  <path d="M-5741.629,13954.267s-37.556,33.384-11.228,70.664,64.316,18.451,70.4,2.988,12.1-49.3,8.011-59.812-10.479-8.2-11.891-13.84" transform="translate(5964 -12386)"  stroke-linecap="round" stroke-linejoin="round" stroke-width="4"/>
  <path d="M-5776.662,13965.7s14.267-6.887,16.864,6.646-4.51,13.257-10.652,12.265-11.083-13.5,3.037-14.078" transform="translate(5964 -12386)"  stroke-linecap="round" stroke-linejoin="round" stroke-width="4"/>
  <path d="M-5666.063,13972.513s9.129-3.228,11.8,2.13,4.218,13.733-5.508,15.465-10.5-.275-11.1-4.673.15-9.287,4.812-10.792" transform="translate(5964 -12386)"  stroke-linecap="round" stroke-linejoin="round" stroke-width="4"/>
  <path d="M-5750.657,13903.084l1.452,8.421" transform="translate(5964 -12386)"  stroke-linecap="round" stroke-width="4"/>
  <path d="M-5690.65,13903.084v7.878" transform="translate(5964 -12386)"  stroke-linecap="round" stroke-width="4"/>
  <path d="M-5727.449,13924.239s5.3,5.777,11.194,6.229,11.556-3.413,12.306-6.229" transform="translate(5964 -12386)"  stroke-linecap="round" stroke-linejoin="round" stroke-width="4"/>
  <path d="M-5750.657,14048.429c5.765-3.169,11.895-7.2,17.991-3.638s-6.883,14.579-12.913,15.615S-5756.422,14051.6-5750.657,14048.429Z" transform="translate(5964 -12386)"  stroke-linecap="round" stroke-linejoin="round" stroke-width="4"/>
  <path d="M-5688.768,14039.917s10.644-5.881,17.283,1.4-3.419,17.145-9.62,16.131-8.991-10.119-4.742-14.591" transform="translate(5964 -12386)"  stroke-linecap="round" stroke-linejoin="round" stroke-width="4"/>
  <path d="M-5727.449,13853.164l-1.312,5.893,1.312,12.159" transform="translate(5964 -12386)"  stroke-linecap="round" stroke-linejoin="round" stroke-width="4"/>
  <path d="M-5717.563,13851.9l1.067,11.636-1.067,6.581" transform="translate(5964 -12386)"  stroke-linecap="round" stroke-linejoin="round" stroke-width="4"/>
  <path d="M-5706.489,13853.164c2.995,9.271,1.921,7.944,1.734,12.6a12.2,12.2,0,0,0,2.648,7.89" transform="translate(5964 -12386)"  stroke-linecap="round" stroke-linejoin="round" stroke-width="4"/>
  <path d="M-5773.628,13873.251s-33.193-9.232-28.5-33.964,33.537-20.448,39.737-11.232,8.356,24.652,2.91,27.261" transform="translate(5964 -12386)"  stroke-linecap="round" stroke-linejoin="round" stroke-width="4"/>
  <path d="M-5685.49,13862.189s.782-16.356,20.543-19.535,23.823,14.98,23.823,17.618-6.881,15.964-18.308,16.686" transform="translate(5964 -12386)"  stroke-linecap="round" stroke-linejoin="round" stroke-width="4"/>
  <path d="M-5671.054,13975.713s5.9-38.916,41.566-38.132,45.64,34.138,45.192,48.271-14.54,56.97-43.56,52.387-44.047-26.717-31.613-45.958,28.3-34.023,44.024-21.582-2.429,32.205-12.411,30.228" transform="translate(5964 -12386)"  stroke-linecap="round" stroke-linejoin="round" stroke-width="4"/>
</g>
 </g>
 <g transform="translate(688.823 16.29)">
<g transform="translate(-635 198.701) rotate(-23)">
  <path d="M-5786.2,14037.307s-10.572-9.217-16.353-4.332,3.8,10.994,3.8,10.994,13.17,8.186,16.779,2.591-9.851-6.446-9.851-6.446" transform="translate(5964 -12386)"  stroke-linecap="round" stroke-linejoin="round" stroke-width="4"/>
  <path d="M-5799.852,14044.271s-9.165,9.938-3.282,17.356,12.652,1.824,12.652,1.824,4.578-8.687,2.491-14.675" transform="translate(5964 -12386)"  stroke-linecap="round" stroke-linejoin="round" stroke-width="4"/>
  <path d="M-5790.091,14039.66c4.788-13.213,8.842-13.311,8.842-13.311" transform="translate(5964 -12386)"  stroke-linecap="round" stroke-width="4"/>
</g>
<g transform="translate(88.071 -15.049) rotate(3)">
  <path d="M-5622.033,14049.635s-21.12.852-24.371,2.978.029,12.061,11.849,10.041,16.172-3.4,16.384-7.9-8.055,0-8.055,0" transform="translate(5964 -12386)"  stroke-linecap="round" stroke-linejoin="round" stroke-width="4"/>
  <path d="M-5632.878,14041.525s-5.342,6.848,0,11.782" transform="translate(5964 -12386)"  stroke-linecap="round" stroke-width="4"/>
  <path d="M-5639.55,14060.482s-1.9,24.571,14.578,16.686,0-19.776,0-19.776" transform="translate(5964 -12386)"  stroke-linecap="round" stroke-linejoin="round" stroke-width="4"/>
</g>
 </g>
  </g>
</svg>
