<svg xmlns="http://www.w3.org/2000/svg" width="206.609" height="215.22" viewBox="0 0 206.609 215.22">
  <g transform="translate(-132.031 -541.556)">
 <path d="M-5848.594,13252.452s-33.057.262-40.173-39.483,11.729-67.358,48.573-72.981,59.707-13.226,72.862,11.759,8.84,67.22-6.491,79.192-36.642,21.514-36.642,21.514-27.648.777-38.128,10.884" transform="translate(6040 -12508)" fill="none" stroke-linecap="round" stroke-linejoin="round" stroke-width="4"/>
 <path d="M-5824.883,13063.564c7.421.292,26.663-10.42,49.413,13.607s-12.353,50.059-12.353,50.059-4.38,7.158-37.061,10.933-47.179-11.391-53.992-23.535-1.688-43.483,44.738-63.231" transform="translate(6040 -12508)" fill="none" stroke-linecap="round" stroke-linejoin="round" stroke-width="4"/>
 <path d="M-5856.457,13089.527v4.427" transform="translate(6040 -12508)" fill="none" stroke-linecap="round" stroke-width="4"/>
 <path d="M-5820.3,13086.463v5.4" transform="translate(6040 -12508)" fill="none" stroke-linecap="round" stroke-width="4"/>
 <path d="M-5841.377,13097.11l-23.184,2.409s-6.677.912,0,3.648,23.184,3.29,23.184,3.29" transform="translate(6040 -12508)" fill="none" stroke="#fb0" stroke-linecap="round" stroke-linejoin="round" stroke-width="4"/>
 <path d="M-5770.768,13171.227" transform="translate(6040 -12508)"  stroke-width="1"/>
 <path d="M-5777.274,13173.738l48.123-18.193,7.8-19.258" transform="translate(6040 -12508)" fill="none" stroke-linecap="round" stroke-linejoin="round" stroke-width="4"/>
 <path d="M-5737.548,13159.046l36.051,2.489" transform="translate(6040 -12508)" fill="none" stroke-linecap="round" stroke-width="4"/>
 <path d="M-5878.388,13161.535l-12.516-11.556-2.8-17.051" transform="translate(6040 -12508)" fill="none" stroke-linecap="round" stroke-linejoin="round" stroke-width="4"/>
 <path d="M-5886.048,13153.489h-20.92" transform="translate(6039 -12508)" fill="none" stroke-linecap="round" stroke-width="4"/>
  </g>
</svg>
